<svg version="1.1" id="Layer_1" xmlns="http://www.w3.org/2000/svg" xmlns:xlink="http://www.w3.org/1999/xlink" x="0px" y="0px"
	 width="100%" viewBox="0 0 64 64" enable-background="new 0 0 64 64" xml:space="preserve">
<path fill="#FFFFFF" opacity="1.000000" stroke="none" 
	d="
M34.000000,65.000000 
	C23.040268,65.000000 12.080538,65.000000 1.060403,65.000000 
	C1.060403,43.785172 1.060403,22.570137 1.060403,1.000000 
	C8.350366,1.000000 15.706446,1.000000 23.407829,1.374846 
	C21.785046,2.323498 19.816961,2.897305 16.828880,3.768497 
	C23.692339,5.434602 29.200998,6.771830 34.645847,8.093569 
	C33.984932,11.838297 32.791523,14.720936 33.144615,17.399731 
	C33.900887,23.137259 31.113007,26.404087 26.590574,28.739536 
	C23.467831,30.352163 20.149841,31.583523 16.939461,33.030434 
	C12.841574,34.877335 8.764197,36.769753 4.677980,38.642548 
	C4.858484,39.108654 5.038988,39.574764 5.219491,40.040871 
	C8.059520,39.039745 10.899548,38.038620 13.739576,37.037495 
	C13.835197,37.271076 13.930820,37.504658 14.026442,37.738239 
	C10.704370,39.563923 7.382298,41.389610 4.060226,43.215294 
	C4.305191,43.724720 4.550156,44.234146 4.795121,44.743572 
	C14.622510,40.059452 24.449900,35.375328 33.956985,30.843876 
	C36.694069,34.172382 39.330349,36.867100 41.287666,39.987675 
	C42.182468,41.414272 42.374424,43.908360 41.792385,45.524845 
	C39.425110,52.099445 36.634529,58.521629 34.000000,65.000000 
z"/>
<path fill="#000000" opacity="1.000000" stroke="none" 
	d="
M34.375000,65.000000 
	C36.634529,58.521629 39.425110,52.099445 41.792385,45.524845 
	C42.374424,43.908360 42.182468,41.414272 41.287666,39.987675 
	C39.330349,36.867100 36.694069,34.172382 33.956985,30.843876 
	C24.449900,35.375328 14.622510,40.059452 4.795121,44.743572 
	C4.550156,44.234146 4.305191,43.724720 4.060226,43.215294 
	C7.382298,41.389610 10.704370,39.563923 14.026442,37.738239 
	C13.930820,37.504658 13.835197,37.271076 13.739576,37.037495 
	C10.899548,38.038620 8.059520,39.039745 5.219491,40.040871 
	C5.038988,39.574764 4.858484,39.108654 4.677980,38.642548 
	C8.764197,36.769753 12.841574,34.877335 16.939461,33.030434 
	C20.149841,31.583523 23.467831,30.352163 26.590574,28.739536 
	C31.113007,26.404087 33.900887,23.137259 33.144615,17.399731 
	C32.791523,14.720936 33.984932,11.838297 34.645847,8.093569 
	C29.200998,6.771830 23.692339,5.434602 16.828880,3.768497 
	C19.816961,2.897305 21.785046,2.323498 23.876564,1.374846 
	C30.354399,1.000000 36.708797,1.000000 43.614273,1.346568 
	C46.205528,3.458407 47.832367,4.969042 46.076389,8.243163 
	C42.681370,14.573370 44.749821,17.337065 51.867508,18.138809 
	C55.678364,18.568068 59.328636,20.422964 63.634464,21.824261 
	C59.363003,23.118008 56.242027,23.844761 53.306454,25.030510 
	C51.401154,25.800108 49.766312,27.239279 48.010292,28.378450 
	C49.375591,30.256416 50.378246,32.680988 52.191399,33.883911 
	C54.893879,35.676849 55.645752,38.010956 54.882835,40.584995 
	C53.954681,43.716553 52.754814,47.021503 50.764935,49.532143 
	C46.484825,54.932369 41.623447,59.871895 37.000000,65.000000 
	C36.250000,65.000000 35.500000,65.000000 34.375000,65.000000 
z"/>
<path fill="#FFFFFF" opacity="1.000000" stroke="none" 
	d="
M37.468658,65.000000 
	C41.623447,59.871895 46.484825,54.932369 50.764935,49.532143 
	C52.754814,47.021503 53.954681,43.716553 54.882835,40.584995 
	C55.645752,38.010956 54.893879,35.676849 52.191399,33.883911 
	C50.378246,32.680988 49.375591,30.256416 48.010292,28.378450 
	C49.766312,27.239279 51.401154,25.800108 53.306454,25.030510 
	C56.242027,23.844761 59.363003,23.118008 63.634464,21.824261 
	C59.328636,20.422964 55.678364,18.568068 51.867508,18.138809 
	C44.749821,17.337065 42.681370,14.573370 46.076389,8.243163 
	C47.832367,4.969042 46.205528,3.458407 44.082672,1.346568 
	C50.972790,1.000000 57.945576,1.000000 64.959183,1.000000 
	C64.959183,22.223127 64.959183,43.446346 64.959183,65.000000 
	C55.981796,65.000000 46.959560,65.000000 37.468658,65.000000 
z"/>
</svg>